<svg xmlns="http://www.w3.org/2000/svg" viewBox="0 0 900 620" role="img" aria-label="Industrial gallery">
  <defs>
    <linearGradient id="bg" x1="0" x2="1" y1="0" y2="1">
      <stop offset="0" stop-color="#88BDBC"/>
      <stop offset="0.55" stop-color="#254E58"/>
      <stop offset="1" stop-color="#112D32"/>
    </linearGradient>
    <filter id="shadow" x="-20%" y="-20%" width="140%" height="140%">
      <feDropShadow dx="0" dy="18" stdDeviation="20" flood-color="#112D32" flood-opacity="0.25"/>
    </filter>
  </defs>
  <rect width="900" height="620" fill="url(#bg)"/>
  <circle cx="770" cy="100" r="190" fill="#ffffff" opacity="0.09"/>
  <circle cx="116" cy="520" r="160" fill="#ffffff" opacity="0.08"/>
  <g filter="url(#shadow)">
    <rect x="92" y="212" width="610" height="190" rx="18" fill="#F7FBFA"/>
    <path d="M92 214L397 116L702 214Z" fill="#E8F1EF"/>
    <path d="M156 205L397 135L638 205" fill="none" stroke="#254E58" stroke-width="18" stroke-linecap="round" opacity="0.9"/>
    <rect x="110" y="240" width="520" height="130" rx="12" fill="#112D32" opacity="0.11"/>
    <rect x="110" y="280" width="520" height="14" rx="7" fill="#DCE9E7" opacity="0.45"/><rect x="110" y="308" width="520" height="14" rx="7" fill="#DCE9E7" opacity="0.45"/><rect x="110" y="336" width="520" height="14" rx="7" fill="#DCE9E7" opacity="0.45"/><rect x="110" y="364" width="520" height="14" rx="7" fill="#DCE9E7" opacity="0.45"/><rect x="110" y="392" width="520" height="14" rx="7" fill="#DCE9E7" opacity="0.45"/>
    <rect x="130" y="255" width="90" height="115" rx="8" fill="#ffffff" opacity="0.78"/><rect x="245" y="255" width="90" height="115" rx="8" fill="#ffffff" opacity="0.68"/>
    <rect x="650" y="328" width="96" height="42" rx="10" fill="#254E58"/>
    <circle cx="673" cy="378" r="17" fill="#112D32"/>
    <circle cx="727" cy="378" r="17" fill="#112D32"/>
  </g>
  <g fill="#fff">
    <text x="92" y="486" font-family="Inter, Arial, sans-serif" font-size="42" font-weight="800">Industrial gallery</text>
    <text x="92" y="530" font-family="Inter, Arial, sans-serif" font-size="24" opacity="0.82">Replace image in CMS</text>
  </g>
</svg>